<svg width="33" height="33" viewBox="0 0 33 33" fill="none" xmlns="http://www.w3.org/2000/svg">
<path d="M16.0613 0.561523C24.6217 0.561523 31.5613 7.50111 31.5613 16.0615C31.5613 24.6219 24.6217 31.5615 16.0613 31.5615C7.50087 31.5615 0.561279 24.6219 0.561279 16.0615C0.561279 7.50111 7.50087 0.561523 16.0613 0.561523Z" stroke="#E57200"/>
<path d="M22.4613 9.66162H9.66128C8.78128 9.66162 8.06928 10.3816 8.06928 11.2616L8.06128 20.8616C8.06128 21.7416 8.78128 22.4616 9.66128 22.4616H22.4613C23.3413 22.4616 24.0613 21.7416 24.0613 20.8616V11.2616C24.0613 10.3816 23.3413 9.66162 22.4613 9.66162ZM22.4613 12.8616L16.0613 16.8616L9.66128 12.8616V11.2616L16.0613 15.2616L22.4613 11.2616V12.8616Z" fill="#E57200"/>
</svg>
