<svg width="20" height="20" viewBox="0 0 20 20" fill="none" xmlns="http://www.w3.org/2000/svg">
<path d="M12.8569 7.89868C13.061 7.98243 12.8027 8.12868 12.6598 8.12952C12.5947 8.13819 12.5286 8.13088 12.467 8.10823C12.4054 8.08558 12.3503 8.04826 12.3064 7.99951C12.2625 7.95077 12.2311 7.89205 12.215 7.82845C12.1989 7.76486 12.1985 7.69829 12.2139 7.63452C12.3419 7.2741 12.946 7.1291 13.4169 7.24285C14.0956 7.40743 14.3573 7.96785 14.0994 8.4091C13.761 8.9891 12.7456 9.20743 11.9473 8.96368C10.9539 8.66077 10.5864 7.81285 11.0306 7.14827C11.5639 6.35118 12.9931 6.05993 14.1094 6.43243C15.4135 6.86785 15.8864 8.00202 15.2573 8.88493C14.5356 9.8966 12.6948 10.2608 11.2669 9.76035C9.65436 9.19577 9.07728 7.77702 9.89019 6.67993C10.7964 5.45535 13.0448 5.0191 14.781 5.64577C16.6985 6.33785 17.3789 8.03785 16.3852 9.34827C15.2964 10.7833 12.6435 11.2908 10.6019 10.5391C8.38228 9.72118 7.59894 7.7416 8.77269 6.22077C10.0423 4.5766 13.0969 3.99743 15.4406 4.8741C17.9614 5.8166 18.8469 8.0741 17.4939 9.80368C16.6335 10.9041 14.9964 11.6424 13.2039 11.7653" stroke="#121212" stroke-width="0.4375" stroke-linecap="round" stroke-linejoin="round"/>
<path d="M13.2043 11.7653H1.87513V15.5332H13.2335C15.991 15.5332 18.123 13.6957 18.123 11.2944V7.99776M16.0039 14.7323V13.7907M14.591 15.2978V13.4136M13.178 15.5332V14.5915M11.7651 15.5332V13.649M10.3526 15.5332V14.5915M8.9393 15.5332V13.649M7.5268 15.5332V14.5915M4.70096 15.5332V14.5915M6.11346 15.5332V13.649M3.28805 15.5332V13.649M8.23305 11.7182V7.62109" stroke="#121212" stroke-width="0.4375" stroke-linecap="round" stroke-linejoin="round"/>
</svg>
