<svg width="24" height="24" viewBox="0 0 24 24" fill="none" xmlns="http://www.w3.org/2000/svg">
<path d="M1.66663 5.6665H22.3333V18.3332H1.66663V5.6665Z" fill="#5C9E31"/>
<path d="M19.6743 12.0075L11.9554 16.8842L4.32568 12.0969L12.0447 7.22021L19.6743 12.0075Z" fill="#FCEA2B"/>
<path d="M12 15C13.6569 15 15 13.6569 15 12C15 10.3431 13.6569 9 12 9C10.3431 9 9 10.3431 9 12C9 13.6569 10.3431 15 12 15Z" fill="#1E50A0"/>
<path d="M14.7197 13.2604C14.8296 13.0205 14.9076 12.7673 14.9517 12.5071C14.7038 11.9889 14.3424 11.5332 13.8942 11.1738C13.4461 10.8144 12.9227 10.5606 12.363 10.4313C11.8034 10.3019 11.2217 10.3003 10.6613 10.4265C10.1009 10.5527 9.57616 10.8036 9.126 11.1604C9.0615 11.3789 9.02213 11.604 9.00867 11.8314C9.45103 11.4685 9.97219 11.2142 10.5304 11.0889C11.0887 10.9635 11.6686 10.9705 12.2236 11.1094C12.7787 11.2483 13.2935 11.5152 13.7269 11.8887C14.1603 12.2622 14.5003 12.732 14.7197 13.2604Z" fill="white"/>
<path d="M1.66663 5.6665H22.3333V18.3332H1.66663V5.6665Z" stroke="#121212" stroke-width="0.555556" stroke-linecap="round" stroke-linejoin="round"/>
</svg>
