<svg width="32" height="33" viewBox="0 0 32 33" fill="none" xmlns="http://www.w3.org/2000/svg">
<circle cx="16" cy="16.0615" r="15.5" stroke="#E57200"/>
<path d="M23.8404 21.6843L19.766 17.6099C19.6785 17.5235 19.5647 17.4686 19.4426 17.4542C19.3204 17.4397 19.1969 17.4663 19.0917 17.5299C18.3567 17.9746 17.8084 18.6712 17.5488 19.49C17.4174 19.9014 16.9373 20.09 16.5659 19.8671L16.5602 19.8614L16.5545 19.8557C14.7698 18.7853 13.2762 17.2918 12.2058 15.507C12.2058 15.5013 12.2001 15.4956 12.2001 15.4956C11.9715 15.1242 12.1601 14.6442 12.5715 14.5127C13.3921 14.2564 14.0897 13.7072 14.5316 12.9698C14.663 12.7527 14.6287 12.4784 14.4516 12.2955L10.3772 8.22117C10.2897 8.13469 10.1759 8.07986 10.0538 8.06537C9.93165 8.05088 9.80816 8.07755 9.7029 8.14116C9.20467 8.44008 8.78867 8.85828 8.49238 9.35807C8.1961 9.85786 8.02885 10.4235 8.00571 11.0041V11.0098C8 11.0669 8 11.1241 8 11.1812C8 11.2612 8.00571 11.3355 8.01143 11.4098C8.07943 13.6726 8.72674 15.8802 9.89147 17.8214C10.9601 19.6043 12.4572 21.1015 14.2401 22.1701L14.2459 22.1758C16.2116 23.3587 18.4517 24.0044 20.7431 24.0558C20.7889 24.0558 20.8346 24.0615 20.8803 24.0615H21.2003V24.0501C21.7558 24.003 22.2924 23.8253 22.7661 23.5313C23.2398 23.2373 23.6373 22.8355 23.9261 22.3586C24.0518 22.1415 24.0175 21.8615 23.8404 21.6843Z" fill="#E57200"/>
</svg>
